<svg width="1440" height="2206" viewBox="0 0 1440 2206" fill="none" xmlns="http://www.w3.org/2000/svg">
<path fill-rule="evenodd" clip-rule="evenodd" d="M997.046 0C947.86 18.2085 885.161 51.8653 850 111C839.013 129.477 831.581 145.778 824.915 160.397C804.886 204.324 791.783 233.06 710 260C705.679 261.423 701.303 262.852 696.882 264.296C614.346 291.244 516.051 323.338 461 423C445.268 451.481 432.478 484.156 419.578 517.113C384.921 605.658 349.466 696.239 254 713C215.686 719.727 179.767 723.717 146.418 727.421C89.5015 733.742 40.072 739.233 -1 756.08V2205.03C58.7738 2185.94 137.801 2142.38 171 2060C176.876 2045.42 181.924 2032.16 186.542 2020.03C224.36 1920.71 233.376 1897.04 433 1840C657 1776 836 1688 955 1414C983.682 1347.96 1033 1302 1103 1318C1212.27 1342.98 1231 1322 1301 1106C1337.72 992.707 1393.63 925.38 1440 889.25V0H997.046Z" fill="#1F61BA"/>
</svg>
